<svg width="47" height="47" viewBox="0 0 47 47" fill="none" xmlns="http://www.w3.org/2000/svg">
<g clip-path="url(#clip0_2_65)">
<path d="M20.6072 16.4408V19.7043H18.2182V23.693H20.6072V35.5501H25.5178V23.693H28.8121C28.8121 23.693 29.1226 21.7804 29.2719 19.6877H25.5368V16.9622C25.5368 16.5522 26.0724 16.0047 26.6033 16.0047H29.2766V11.8501H25.6387C20.4863 11.8501 20.6072 15.8435 20.6072 16.4408Z" fill="white"/>
<path d="M23.7 42.66C28.7285 42.66 33.5511 40.6624 37.1067 37.1067C40.6624 33.5511 42.66 28.7285 42.66 23.7C42.66 18.6715 40.6624 13.8489 37.1067 10.2933C33.5511 6.73757 28.7285 4.74 23.7 4.74C18.6715 4.74 13.8489 6.73757 10.2933 10.2933C6.73757 13.8489 4.74 18.6715 4.74 23.7C4.74 28.7285 6.73757 33.5511 10.2933 37.1067C13.8489 40.6624 18.6715 42.66 23.7 42.66ZM23.7 47.4C10.6105 47.4 0 36.7895 0 23.7C0 10.6105 10.6105 0 23.7 0C36.7895 0 47.4 10.6105 47.4 23.7C47.4 36.7895 36.7895 47.4 23.7 47.4Z" fill="white"/>
</g>
<defs>
<clipPath id="clip0_2_65">
<rect width="47" height="47" fill="white"/>
</clipPath>
</defs>
</svg>
