<svg width="47" height="47" viewBox="0 0 47 47" fill="none" xmlns="http://www.w3.org/2000/svg">
<g clip-path="url(#clip0_2_64)">
<path fill-rule="evenodd" clip-rule="evenodd" d="M13.9291 0.1422C16.4564 0.0258545 17.2622 0 23.7 0C30.1378 0 30.9436 0.0280091 33.4687 0.1422C35.9938 0.256391 37.7175 0.659291 39.2257 1.24317C40.8049 1.83998 42.2377 2.7729 43.4227 3.97945C44.6293 5.16229 45.56 6.59291 46.1547 8.17435C46.7407 9.68253 47.1415 11.4062 47.2578 13.927C47.3741 16.4586 47.4 17.2644 47.4 23.7C47.4 30.1378 47.372 30.9436 47.2578 33.4709C47.1436 35.9917 46.7407 37.7153 46.1547 39.2235C45.56 40.8051 44.6277 42.2381 43.4227 43.4227C42.2377 44.6293 40.8049 45.56 39.2257 46.1547C37.7175 46.7407 35.9938 47.1415 33.473 47.2578C30.9436 47.3741 30.1378 47.4 23.7 47.4C17.2622 47.4 16.4564 47.372 13.9291 47.2578C11.4083 47.1436 9.68468 46.7407 8.1765 46.1547C6.59489 45.5599 5.1619 44.6277 3.97729 43.4227C2.77156 42.2392 1.83851 40.8068 1.24317 39.2257C0.659291 37.7175 0.258545 35.9938 0.1422 33.473C0.0258545 30.9414 0 30.1356 0 23.7C0 17.2622 0.0280091 16.4564 0.1422 13.9313C0.256391 11.4062 0.659291 9.68253 1.24317 8.17435C1.83938 6.59309 2.77316 5.16081 3.97945 3.97729C5.16238 2.77183 6.59393 1.83878 8.17435 1.24317C9.68253 0.659291 11.4062 0.258545 13.927 0.1422H13.9291ZM33.277 4.4082C30.7777 4.29401 30.0279 4.27031 23.7 4.27031C17.3721 4.27031 16.6223 4.29401 14.123 4.4082C11.8112 4.51377 10.5573 4.89944 9.72131 5.22477C8.61603 5.65568 7.82531 6.16631 6.99581 6.99581C6.2095 7.76078 5.60436 8.69205 5.22477 9.72131C4.89944 10.5573 4.51377 11.8112 4.4082 14.123C4.29401 16.6223 4.27031 17.3721 4.27031 23.7C4.27031 30.0279 4.29401 30.7777 4.4082 33.277C4.51377 35.5888 4.89944 36.8427 5.22477 37.6787C5.60397 38.7064 6.2094 39.6393 6.99581 40.4042C7.76067 41.1906 8.69359 41.796 9.72131 42.1752C10.5573 42.5006 11.8112 42.8862 14.123 42.9918C16.6223 43.106 17.3699 43.1297 23.7 43.1297C30.0301 43.1297 30.7777 43.106 33.277 42.9918C35.5888 42.8862 36.8427 42.5006 37.6787 42.1752C38.784 41.7443 39.5747 41.2337 40.4042 40.4042C41.1906 39.6393 41.796 38.7064 42.1752 37.6787C42.5006 36.8427 42.8862 35.5888 42.9918 33.277C43.106 30.7777 43.1297 30.0279 43.1297 23.7C43.1297 17.3721 43.106 16.6223 42.9918 14.123C42.8862 11.8112 42.5006 10.5573 42.1752 9.72131C41.7443 8.61603 41.2337 7.82531 40.4042 6.99581C39.6392 6.20955 38.7079 5.60443 37.6787 5.22477C36.8427 4.89944 35.5888 4.51377 33.277 4.4082ZM20.6729 31.0061C22.3634 31.7098 24.2459 31.8048 25.9987 31.2748C27.7516 30.7448 29.266 29.6227 30.2835 28.1001C31.3009 26.5775 31.7581 24.749 31.5771 22.9267C31.3961 21.1045 30.5881 19.4016 29.291 18.109C28.4642 17.2826 27.4644 16.6499 26.3637 16.2564C25.263 15.8628 24.0887 15.7182 22.9254 15.8329C21.7621 15.9477 20.6387 16.3189 19.6361 16.9199C18.6335 17.5209 17.7766 18.3368 17.1271 19.3087C16.4777 20.2806 16.0518 21.3845 15.8801 22.5408C15.7085 23.6971 15.7953 24.877 16.1344 25.9957C16.4735 27.1144 17.0564 28.144 17.8412 29.0104C18.626 29.8767 19.5931 30.5583 20.6729 31.0061ZM15.0861 15.0861C16.2173 13.9549 17.5602 13.0576 19.0382 12.4454C20.5162 11.8332 22.1003 11.5181 23.7 11.5181C25.2997 11.5181 26.8838 11.8332 28.3618 12.4454C29.8398 13.0576 31.1827 13.9549 32.3139 15.0861C33.4451 16.2173 34.3424 17.5602 34.9546 19.0382C35.5668 20.5162 35.8819 22.1003 35.8819 23.7C35.8819 25.2997 35.5668 26.8838 34.9546 28.3618C34.3424 29.8398 33.4451 31.1827 32.3139 32.3139C30.0293 34.5984 26.9308 35.8819 23.7 35.8819C20.4692 35.8819 17.3707 34.5984 15.0861 32.3139C12.8016 30.0293 11.5181 26.9308 11.5181 23.7C11.5181 20.4692 12.8016 17.3707 15.0861 15.0861ZM38.5836 13.3323C38.8639 13.0679 39.0883 12.7499 39.2435 12.3972C39.3988 12.0445 39.4816 11.6642 39.4873 11.2789C39.4929 10.8936 39.4211 10.5111 39.2762 10.154C39.1314 9.79688 38.9163 9.47248 38.6438 9.19999C38.3714 8.9275 38.047 8.71246 37.6899 8.56759C37.3328 8.42272 36.9503 8.35097 36.5649 8.35658C36.1796 8.3622 35.7994 8.44507 35.4466 8.60029C35.0939 8.75551 34.7759 8.97992 34.5115 9.26024C33.9972 9.8054 33.7157 10.5295 33.7266 11.2789C33.7375 12.0283 34.0401 12.7439 34.57 13.2738C35.1 13.8038 35.8156 14.1063 36.5649 14.1172C37.3143 14.1282 38.0384 13.8466 38.5836 13.3323Z" fill="white"/>
</g>
<defs>
<clipPath id="clip0_2_64">
<rect width="47" height="47" fill="white"/>
</clipPath>
</defs>
</svg>
