<svg width="138" height="138" viewBox="0 0 138 138" fill="none" xmlns="http://www.w3.org/2000/svg">
<rect width="138" height="138" rx="20" fill="#F04649"/>
<g clip-path="url(#clip0_2_28)">
<path d="M45.9022 103.79L47.5043 104.59C54.1805 108.589 61.6573 110.455 69.1343 110.455C92.6333 110.455 111.86 91.2578 111.86 67.794C111.86 56.5956 107.32 45.6635 99.3092 37.6644C91.298 29.6653 80.6164 25.1327 69.1343 25.1327C45.6354 25.1327 26.4086 44.3303 26.6758 68.0608C26.6758 76.0596 29.0791 83.7923 33.0845 90.4578L34.1526 92.0578L29.8804 107.789L45.9022 103.79Z" fill="#F04649"/>
<path d="M103.849 33.3982C94.7694 24.0662 82.2189 19 69.4012 19C42.1641 19 20.2672 41.1305 20.534 68.0604C20.534 76.5928 22.9373 84.8587 26.9431 92.3242L20 117.654L45.9022 110.989C53.1121 114.988 61.1229 116.855 69.1344 116.855C96.1047 116.855 118.002 94.7239 118.002 67.7944C118.002 54.7291 112.928 42.4638 103.849 33.3982H103.849ZM69.4012 108.589C62.1913 108.589 54.9814 106.723 48.8396 102.99L47.2375 102.19L31.7497 106.19L35.755 90.9917L34.687 89.3917C22.9373 70.4609 28.5451 45.3967 47.7715 33.6646C66.9979 21.9329 91.8321 27.5323 103.582 46.7299C115.331 65.9275 109.723 90.7245 90.4972 102.457C84.355 106.456 76.8783 108.589 69.4012 108.589V108.589ZM92.9001 78.9932L89.9628 77.66C89.9628 77.66 85.6906 75.7935 83.0201 74.4603C82.7529 74.4603 82.4861 74.1935 82.2189 74.1935C81.4177 74.1935 80.8836 74.4603 80.3496 74.7271C80.3496 74.7271 80.0828 74.9935 76.3443 79.2597C76.0771 79.7929 75.543 80.0597 75.009 80.0597H74.7418C74.475 80.0597 73.941 79.7929 73.6738 79.5265L72.3385 78.9932C69.4012 77.66 66.7311 76.0599 64.5946 73.927C64.0606 73.3938 63.2593 72.8606 62.7253 72.3274C60.856 70.4609 58.9868 68.3276 57.6519 65.9279L57.3847 65.3947C57.1179 65.1279 57.1179 64.8615 56.8507 64.3282C56.8507 63.795 56.8507 63.2618 57.1179 62.995C57.1179 62.995 58.1859 61.6617 58.9868 60.8621C59.5212 60.3285 59.788 59.5288 60.322 58.9956C60.856 58.1956 61.1232 57.1291 60.856 56.3291C60.5892 54.9959 57.3847 47.7968 56.5839 46.1971C56.0495 45.3971 55.5158 45.1306 54.7146 44.8638H51.7773C51.2429 44.8638 50.7092 45.1306 50.1748 45.1306L49.9076 45.3971C49.3736 45.6639 48.8396 46.1971 48.3055 46.4635C47.7715 46.9971 47.5043 47.53 46.9703 48.0636C45.101 50.4633 44.033 53.3962 44.033 56.3291C44.033 58.462 44.567 60.5953 45.3682 62.4618L45.6354 63.2618C48.0387 68.3276 51.2429 72.8606 55.5158 76.86L56.5839 77.9264C57.3847 78.7264 58.1859 79.2597 58.72 80.0593C64.3278 84.8591 70.7364 88.3252 77.9463 90.1917C78.7476 90.4581 79.8156 90.4581 80.6168 90.7249H83.2869C84.6222 90.7249 86.2243 90.1917 87.2927 89.6585C88.0935 89.1253 88.6276 89.1253 89.1616 88.592L89.696 88.0584C90.23 87.5252 90.764 87.2588 91.2981 86.7256C91.8321 86.1923 92.3661 85.6591 92.6333 85.1255C93.1673 84.0591 93.4342 82.7258 93.7014 81.3929V79.5265C93.7014 79.5265 93.4342 79.2597 92.9001 78.9932Z" fill="white"/>
</g>
<defs>
<clipPath id="clip0_2_28">
<rect width="98" height="99" fill="white" transform="translate(20 19)"/>
</clipPath>
</defs>
</svg>
