<svg width="47" height="47" viewBox="0 0 47 47" fill="none" xmlns="http://www.w3.org/2000/svg">
<g clip-path="url(#clip0_2_53)">
<path fill-rule="evenodd" clip-rule="evenodd" d="M34.1044 28.1648C33.5208 27.873 30.6597 26.467 30.127 26.2711C29.5943 26.0772 29.2066 25.9813 28.8169 26.5649C28.4291 27.1445 27.3148 28.4566 26.976 28.8444C26.6353 29.2341 26.2965 29.2811 25.7149 28.9912C25.1332 28.6975 23.2572 28.0845 21.0345 26.1027C19.3053 24.5595 18.1361 22.6541 17.7973 22.0705C17.4585 21.4889 17.7601 21.1736 18.0519 20.8837C18.3143 20.6233 18.6335 20.2042 18.9253 19.8654C19.2171 19.5247 19.3131 19.2818 19.507 18.8921C19.7028 18.5044 19.6049 18.1656 19.458 17.8738C19.3131 17.582 18.1498 14.717 17.6642 13.5517C17.1922 12.4179 16.7124 12.5726 16.356 12.553C16.0152 12.5373 15.6275 12.5334 15.2397 12.5334C14.852 12.5334 14.2214 12.6783 13.6887 13.2619C13.1541 13.8435 11.6521 15.2516 11.6521 18.1166C11.6521 20.9797 13.7357 23.7468 14.0275 24.1365C14.3193 24.5243 18.1303 30.4032 23.968 32.9236C25.3585 33.5228 26.4414 33.8812 27.2855 34.1475C28.6798 34.5921 29.9488 34.5294 30.9515 34.3786C32.0677 34.2122 34.3942 32.9706 34.8799 31.6115C35.3636 30.2524 35.3636 29.0872 35.2187 28.8444C35.0737 28.6015 34.686 28.4566 34.1024 28.1648H34.1044ZM23.4863 42.6624H23.4785C20.0111 42.663 16.6074 41.7309 13.6241 39.9638L12.9191 39.5447L5.59104 41.4678L7.54742 34.3238L7.08721 33.5914C5.14873 30.5057 4.12287 26.9346 4.12817 23.2905C4.13208 12.6176 12.8153 3.93437 23.4941 3.93437C28.6641 3.93437 33.5247 5.95146 37.179 9.60962C38.9814 11.4046 40.41 13.5391 41.3821 15.8898C42.3542 18.2404 42.8506 20.7605 42.8425 23.3042C42.8385 33.9772 34.1553 42.6624 23.4863 42.6624ZM39.9598 6.83075C37.8021 4.6588 35.2348 2.93667 32.4067 1.76415C29.5786 0.591622 26.5459 -0.00798265 23.4843 8.02477e-05C10.6494 8.02477e-05 0.19975 10.4478 0.195833 23.2886C0.193875 27.3932 1.26508 31.4 3.30371 34.9309L0 47.0001L12.3453 43.761C15.7604 45.6216 19.5874 46.5966 23.4765 46.5967H23.4863C36.3212 46.5967 46.7709 36.149 46.7748 23.3062C46.7843 20.2459 46.1868 17.214 45.017 14.3861C43.8473 11.5581 42.1284 8.99014 39.9598 6.83075Z" fill="white"/>
</g>
<defs>
<clipPath id="clip0_2_53">
<rect width="47" height="47" fill="white"/>
</clipPath>
</defs>
</svg>
